<?xml version="1.0" encoding="utf-8"?>
<!-- Generator: Adobe Illustrator 27.8.0, SVG Export Plug-In . SVG Version: 6.00 Build 0)  -->
<svg version="1.1" id="Layer_1" xmlns="http://www.w3.org/2000/svg" xmlns:xlink="http://www.w3.org/1999/xlink" x="0px" y="0px"
	 viewBox="0 0 400 400" style="enable-background:new 0 0 400 400;" xml:space="preserve">
<style type="text/css">
	.st0{fill:none;stroke:#FCDA00;stroke-width:0.85;stroke-linecap:round;stroke-linejoin:round;}
	.st1{fill:#FCDA00;}
	.st2{fill:#FFFFFF;}
</style>
<g>
	<g id="Layer_1-2">
		<g>
			<g>
				<path class="st0" d="M55.7,337.5L55.7,337.5c0.3,0,0.7-0.2,0.8-0.5l0,0c20.2-43.1,49.3-92.1,87.6-131.6
					c52.1-53.9,98-67.7,127.4-68.3c-23.8-42.3-48.3-74-66.6-74.7h-1.3c0.4,0,0.9,0,1.3,0h0.2c-0.4,0-0.8,0-1.2,0
					c-20.4,0-40.3,30.2-64.4,74.5c-29.9,55.1-60.9,132-84.8,199.4C54.6,336.9,55,337.5,55.7,337.5L55.7,337.5z"/>
				<path class="st0" d="M281.8,156.2c-23.9-2.3-47.5,6.6-65.4,16.4c52.5,24.2,94.7,72.1,129.6,138.7c0.2,0.3,0.5,0.5,0.9,0.5l0,0
					c0.6,0,1-0.6,0.8-1.2C325.6,252.8,311.6,213.5,281.8,156.2L281.8,156.2z"/>
				<path class="st0" d="M203.6,62.5h1.3C204.5,62.5,204.1,62.5,203.6,62.5z"/>
			</g>
			<g>
				<path class="st1" d="M55.7,337.5L55.7,337.5c0.3,0,0.7-0.2,0.8-0.5l0,0c20.2-43.1,49.3-92.1,87.6-131.6
					c52.1-53.9,98-67.7,127.4-68.3c-23.8-42.3-48.3-74-66.6-74.7h-1.3c0.4,0,0.9,0,1.3,0h0.2c-0.4,0-0.8,0-1.2,0
					c-20.4,0-40.3,30.2-64.4,74.5c-29.9,55.1-60.9,132-84.8,199.4C54.6,336.9,55,337.5,55.7,337.5L55.7,337.5z"/>
				<path class="st1" d="M281.8,156.2c-23.9-2.3-47.5,6.6-65.4,16.4c52.5,24.2,94.7,72.1,129.6,138.7c0.2,0.3,0.5,0.5,0.9,0.5l0,0
					c0.6,0,1-0.6,0.8-1.2C325.6,252.8,311.6,213.5,281.8,156.2L281.8,156.2z"/>
				<path class="st2" d="M203.6,62.5h1.3C204.5,62.5,204.1,62.5,203.6,62.5z"/>
			</g>
		</g>
	</g>
</g>
</svg>
